<svg xmlns="http://www.w3.org/2000/svg" xmlns:v="https://vecta.io/nano" xmlns:xlink="http://www.w3.org/1999/xlink" width="60" height="60" fill="none"><path fill="url(#A)" d="M57.7176 15.7077C57.3614 15.2609 56.8213 15 56.25 15H14.4012l-.9933-5.95824c-.2692-1.61774-1.5299-3.32428-2.9965-4.05762-.92931-.46417-2.05266-.08789-2.51592.83862s-.08789 2.05262.83863 2.51587c.38543.19226.90454.89447.97503 1.31928L14.1009 36.0095c.6528 3.924 4.4211 7.1155 8.3991 7.1155H45c3.9908 0 7.8195-3.046 8.7176-6.9351l4.3598-18.8937c.1281-.5567-.0046-1.1417-.3598-1.5885z"/><use fill="url(#B)" xlink:href="#E"/><use fill="url(#C)" xlink:href="#F"/><use x="-26.25" fill="url(#B)" xlink:href="#E"/><use x="-26.25" fill="url(#C)" xlink:href="#F"/><path fill="url(#D)" d="M9.5709 8.53639c-.28107 0-.56763-.06317-.83679-.19776L2.91135 5.42726C1.98484 4.964 1.60947 3.8379 2.07273 2.91139s1.58844-1.3028 2.51587-.83863l5.8228 2.91138c.9265.46326 1.3018 1.58936.8386 2.51587-.3287.65735-.9906 1.03638-1.6791 1.03638z"/><defs><linearGradient id="A" x1="7.697" x2="58.125" y1="23.955" y2="23.955" gradientUnits="userSpaceOnUse"><stop stop-color="#dedff1"/><stop offset="1" stop-color="#aeb1f0"/></linearGradient><linearGradient id="B" x1="53.266" x2="45.199" y1="46.875" y2="46.875" gradientUnits="userSpaceOnUse"><stop stop-color="#4e54c8"/><stop offset="1" stop-color="#8a8edb"/></linearGradient><linearGradient id="C" x1="46.875" x2="50.625" y1="52.5" y2="52.5" gradientUnits="userSpaceOnUse"><stop stop-color="#dedff1"/><stop offset="1" stop-color="#aeb1f0"/></linearGradient><linearGradient id="D" x1="10.504" x2="3.639" y1="1.874" y2="1.874" gradientUnits="userSpaceOnUse"><stop stop-color="#4e54c8"/><stop offset="1" stop-color="#8a8edb"/></linearGradient><path id="E" d="M48.75 58.125c3.1066 0 5.625-2.5184 5.625-5.625s-2.5184-5.625-5.625-5.625-5.625 2.5184-5.625 5.625 2.5184 5.625 5.625 5.625z"/><path id="F" d="M48.75 54.375c1.0355 0 1.875-.8395 1.875-1.875s-.8395-1.875-1.875-1.875-1.875.8395-1.875 1.875.8395 1.875 1.875 1.875z"/></defs></svg>